<?xml version="1.0" encoding="UTF-8" standalone="no"?>
<!DOCTYPE svg PUBLIC "-//W3C//DTD SVG 20010904//EN"
              "http://www.w3.org/TR/2001/REC-SVG-20010904/DTD/svg10.dtd">

<svg xmlns="http://www.w3.org/2000/svg"
     width="3.41333in" height="3.41333in"
     viewBox="0 0 1024 1024">
  <path id="Selection #1"
        fill="none" stroke="black" stroke-width="1"
        d="M 723.00,361.00
           C 723.00,361.00 727.00,370.00 727.00,370.00
             727.00,370.00 732.00,369.00 732.00,369.00
             732.00,369.00 727.00,360.00 727.00,360.00
             727.00,360.00 723.00,361.00 723.00,361.00 Z
           M 753.00,361.00
           C 753.00,361.00 753.00,426.00 753.00,426.00
             753.00,426.00 757.00,426.00 757.00,426.00
             757.00,426.00 757.00,361.00 757.00,361.00
             757.00,361.00 753.00,361.00 753.00,361.00 Z
           M 717.00,363.00
           C 717.00,363.00 720.00,370.00 720.00,370.00
             720.00,370.00 685.00,370.00 685.00,370.00
             685.00,370.00 685.00,376.00 685.00,376.00
             685.00,376.00 697.00,375.00 697.00,375.00
             697.00,375.00 713.00,375.00 713.00,375.00
             709.31,387.92 692.79,404.26 680.00,408.00
             680.92,409.44 681.70,411.08 683.33,411.87
             687.86,414.09 697.64,405.12 701.00,402.42
             702.89,400.89 705.35,398.46 708.00,399.19
             715.87,401.36 716.99,414.43 727.00,411.00
             724.57,402.72 714.79,397.35 713.01,392.91
             711.86,390.04 714.19,387.35 715.55,385.00
             719.49,378.20 718.40,376.30 725.00,371.00
             723.02,366.44 722.43,363.29 717.00,363.00 Z
           M 105.00,364.00
           C 105.00,364.00 105.00,375.00 105.00,375.00
             105.00,375.00 79.00,374.00 79.00,374.00
             79.00,374.00 79.00,380.00 79.00,380.00
             79.00,380.00 102.00,380.00 102.00,380.00
             95.76,388.72 86.66,396.34 77.00,401.00
             79.58,407.93 83.27,405.24 88.00,401.84
             96.22,395.93 98.48,393.51 105.00,386.00
             105.00,386.00 105.00,407.00 105.00,407.00
             105.00,407.00 95.00,407.00 95.00,407.00
             95.27,408.53 95.21,409.89 96.60,410.98
             98.78,412.69 107.41,412.39 109.40,410.40
             111.04,408.77 110.96,406.14 111.00,404.00
             111.00,404.00 111.00,380.00 111.00,380.00
             113.38,380.00 120.90,380.28 122.68,379.40
             124.74,378.38 124.87,376.16 123.38,375.03
             122.07,374.08 112.41,375.00 110.00,375.03
             110.00,375.03 111.00,364.00 111.00,364.00
             111.00,364.00 105.00,364.00 105.00,364.00 Z
           M 205.00,364.00
           C 205.00,367.49 205.80,376.89 203.40,379.26
             201.27,381.36 194.00,381.86 191.00,382.00
             191.99,390.28 195.16,387.33 205.00,386.00
             205.00,391.20 204.09,403.88 206.85,407.86
             211.74,414.89 229.42,411.07 237.00,411.00
             237.00,411.00 237.00,405.00 237.00,405.00
             237.00,405.00 221.00,406.12 221.00,406.12
             218.44,406.17 214.54,406.37 212.60,404.40
             209.99,401.77 211.00,388.12 211.00,384.00
             211.00,384.00 231.00,380.00 231.00,380.00
             229.53,383.00 228.76,384.33 226.69,387.00
             225.48,388.57 221.07,393.08 224.37,394.83
             225.19,395.27 226.09,395.16 226.93,394.83
             229.97,393.63 235.89,384.11 237.52,381.00
             238.34,379.43 239.47,377.26 238.19,375.60
             236.67,373.62 233.06,374.43 231.00,374.80
             231.00,374.80 211.00,379.00 211.00,379.00
             211.00,379.00 211.00,364.00 211.00,364.00
             211.00,364.00 205.00,364.00 205.00,364.00 Z
           M 349.00,365.00
           C 349.00,365.00 354.00,375.00 354.00,375.00
             354.00,375.00 358.00,373.00 358.00,373.00
             355.91,368.32 354.80,364.25 349.00,365.00 Z
           M 577.00,376.00
           C 577.00,376.00 564.00,376.00 564.00,376.00
             564.66,383.94 567.28,381.09 577.00,381.00
             577.00,381.00 576.00,396.00 576.00,396.00
             576.00,396.00 582.00,396.00 582.00,396.00
             582.00,396.00 582.00,381.00 582.00,381.00
             582.00,381.00 598.00,381.00 598.00,381.00
             597.27,396.86 595.83,401.03 582.00,409.00
             586.94,414.71 592.16,411.79 596.61,406.82
             603.07,399.61 603.00,390.02 603.00,381.00
             603.00,381.00 615.00,382.00 615.00,382.00
             615.00,382.00 615.00,376.00 615.00,376.00
             615.00,376.00 603.00,376.00 603.00,376.00
             603.00,376.00 603.00,364.00 603.00,364.00
             603.00,364.00 597.00,364.00 597.00,364.00
             597.00,364.00 598.00,376.00 598.00,376.00
             598.00,376.00 582.00,376.00 582.00,376.00
             582.00,376.00 582.00,364.00 582.00,364.00
             574.11,364.66 576.81,367.54 577.00,376.00 Z
           M 520.00,365.00
           C 520.00,365.00 520.00,413.00 520.00,413.00
             520.00,413.00 526.00,413.00 526.00,413.00
             526.00,413.00 526.00,387.00 526.00,387.00
             526.00,387.00 549.00,396.00 549.00,396.00
             549.00,396.00 551.00,390.00 551.00,390.00
             551.00,390.00 535.00,383.67 535.00,383.67
             535.00,383.67 527.02,379.58 527.02,379.58
             527.02,379.58 526.00,365.00 526.00,365.00
             526.00,365.00 520.00,365.00 520.00,365.00 Z
           M 545.00,366.00
           C 546.62,371.12 547.96,375.34 554.00,374.00
             551.91,369.32 550.80,365.25 545.00,366.00 Z
           M 317.00,371.00
           C 317.00,371.00 331.00,378.00 331.00,378.00
             331.00,378.00 331.00,377.00 331.00,377.00
             331.00,377.00 333.00,375.00 333.00,375.00
             329.40,370.75 319.94,361.82 317.00,371.00 Z
           M 341.00,368.00
           C 341.00,368.00 346.00,378.00 346.00,378.00
             346.00,378.00 350.00,376.00 350.00,376.00
             348.40,371.00 346.85,367.27 341.00,368.00 Z
           M 400.00,367.00
           C 400.00,367.00 400.00,403.00 400.00,403.00
             400.05,405.42 400.01,408.69 402.31,410.19
             404.85,411.84 411.30,408.97 414.00,407.94
             420.41,405.48 427.74,401.34 432.96,396.91
             434.86,395.29 438.16,392.42 438.80,389.96
             439.31,387.98 438.61,386.77 438.00,385.00
             438.00,385.00 436.00,385.00 436.00,385.00
             428.88,394.20 417.32,401.35 406.00,404.00
             406.00,404.00 406.00,367.00 406.00,367.00
             406.00,367.00 400.00,367.00 400.00,367.00 Z
           M 631.00,367.00
           C 631.00,367.00 629.00,372.00 629.00,372.00
             638.32,378.85 642.70,386.25 647.00,378.00
             647.00,378.00 631.00,367.00 631.00,367.00 Z
           M 538.00,369.00
           C 539.62,374.12 540.96,378.34 547.00,377.00
             544.80,372.44 543.68,368.26 538.00,369.00 Z
           M 791.00,368.65
           C 787.60,370.08 785.94,370.99 783.64,374.04
             780.53,378.16 779.59,383.08 778.60,388.00
             776.29,399.48 775.36,410.99 791.00,410.99
             793.00,410.99 795.07,410.96 797.00,410.35
             804.45,408.00 807.04,399.86 808.58,393.00
             810.89,382.69 813.17,368.41 798.00,368.02
             794.98,367.94 793.93,368.04 791.00,368.65 Z
           M 796.00,375.62
           C 798.30,375.96 799.59,375.95 801.18,378.23
             802.35,380.47 801.81,383.56 801.18,386.00
             800.37,391.87 799.30,402.09 792.01,403.25
             786.63,404.10 785.50,399.20 785.85,395.00
             786.44,387.67 787.87,377.60 796.00,375.62 Z
           M 669.00,376.00
           C 659.07,394.45 646.32,400.86 627.00,406.00
             630.13,413.38 635.76,410.53 642.00,408.30
             651.59,404.88 661.06,397.98 667.33,390.00
             671.52,384.67 674.58,381.47 669.00,376.00 Z
           M 468.00,378.00
           C 469.00,380.89 471.28,389.27 474.27,390.11
             475.59,390.64 476.74,390.21 478.00,390.11
             478.00,390.11 474.00,377.00 474.00,377.00
             474.00,377.00 468.00,378.00 468.00,378.00 Z
           M 489.00,378.00
           C 489.00,378.00 485.55,389.00 485.55,389.00
             481.27,399.49 472.86,406.90 462.00,410.05
             465.78,417.32 470.64,413.81 476.00,410.05
             483.14,405.15 488.39,398.05 491.54,390.00
             493.80,384.21 495.35,380.81 489.00,378.00 Z
           M 308.00,384.00
           C 308.00,384.00 322.00,391.00 322.00,391.00
             322.00,391.00 324.00,386.00 324.00,386.00
             317.63,382.18 311.10,375.67 308.00,384.00 Z
           M 352.00,379.00
           C 339.41,396.71 331.06,401.19 311.00,407.00
             313.76,414.44 319.17,411.45 325.00,409.19
             334.26,405.60 342.06,400.14 348.96,393.00
             353.59,388.20 357.54,384.73 352.00,379.00 Z
           M 455.00,380.89
           C 455.00,380.89 460.00,395.00 460.00,395.00
             460.00,395.00 465.00,394.00 465.00,394.00
             464.42,390.79 462.11,381.85 458.73,380.89
             457.41,380.36 456.26,380.79 455.00,380.89 Z
           M 833.00,403.00
           C 827.55,403.40 826.57,403.36 823.00,399.00
             823.00,399.00 815.00,401.00 815.00,401.00
             818.45,414.26 832.90,412.33 837.84,408.35
             842.60,404.43 843.28,397.51 837.84,393.74
             836.05,392.44 829.87,391.08 827.00,390.00
             831.05,387.79 831.72,387.66 835.00,391.00
             835.00,391.00 843.00,389.00 843.00,389.00
             839.93,374.60 819.07,378.54 819.21,390.00
             819.33,399.80 828.92,395.69 833.00,403.00 Z
           M 868.00,407.00
           C 872.92,412.76 877.07,411.53 883.00,408.00
             883.00,408.00 880.00,401.00 880.00,401.00
             880.00,401.00 877.00,402.00 877.00,402.00
             877.00,402.00 881.00,381.00 881.00,381.00
             876.85,381.02 874.50,380.27 872.00,384.00
             869.20,381.08 868.18,380.25 864.00,380.05
             850.93,379.41 845.25,394.84 849.01,404.00
             852.52,412.56 861.90,412.97 868.00,407.00 Z
           M 905.00,408.00
           C 902.96,417.46 895.11,415.00 887.00,415.00
             887.00,415.00 887.00,422.00 887.00,422.00
             891.17,422.00 905.92,422.72 908.77,420.98
             912.07,418.97 912.47,413.50 913.21,410.00
             913.21,410.00 919.00,381.00 919.00,381.00
             915.15,381.01 912.61,380.12 911.00,384.00
             908.04,381.52 907.01,380.38 903.00,380.06
             891.76,379.15 885.42,387.45 885.04,398.00
             884.95,400.54 885.13,403.67 886.31,405.96
             890.03,413.13 899.38,411.71 905.00,408.00 Z
           M 943.00,400.00
           C 937.09,403.39 933.70,405.34 930.00,398.00
             933.47,398.00 948.20,398.68 950.26,397.01
             953.32,394.54 953.33,380.75 941.00,380.04
             934.86,379.69 929.69,380.99 925.80,386.09
             919.63,394.17 918.84,411.71 936.00,410.96
             939.26,410.82 948.08,409.06 946.66,404.16
             946.20,402.56 944.18,401.07 943.00,400.00 Z
           M 182.00,391.00
           C 182.00,391.00 182.00,384.00 182.00,384.00
             182.00,384.00 169.00,385.00 169.00,385.00
             169.00,385.00 150.00,385.00 150.00,385.00
             146.59,384.98 137.05,382.80 135.66,386.30
             133.94,390.58 139.34,390.95 142.00,391.00
             142.00,391.00 182.00,391.00 182.00,391.00 Z
           M 298.00,391.00
           C 298.00,391.00 298.00,384.00 298.00,384.00
             298.00,384.00 285.00,385.00 285.00,385.00
             285.00,385.00 266.00,385.00 266.00,385.00
             262.59,384.98 253.05,382.80 251.66,386.30
             249.94,390.58 255.34,390.95 258.00,391.00
             258.00,391.00 298.00,391.00 298.00,391.00 Z
           M 864.96,387.76
           C 874.48,390.76 868.49,404.47 861.05,403.38
             854.41,402.41 854.32,388.83 864.96,387.76 Z
           M 902.00,387.57
           C 912.07,389.24 908.00,402.42 900.00,403.28
             894.88,403.83 892.35,399.63 893.66,395.00
             894.94,390.53 897.66,388.47 902.00,387.57 Z
           M 944.00,391.00
           C 944.00,391.00 932.00,391.00 932.00,391.00
             935.96,386.84 940.61,385.37 944.00,391.00 Z
           M 877.00,402.00
           C 877.00,402.00 877.00,403.00 877.00,403.00
             877.00,403.00 876.00,402.00 876.00,402.00
             876.00,402.00 877.00,402.00 877.00,402.00 Z
           M 906.00,407.00
           C 906.00,407.00 906.00,408.00 906.00,408.00
             906.00,408.00 905.00,407.00 905.00,407.00
             905.00,407.00 906.00,407.00 906.00,407.00 Z
           M 518.00,665.00
           C 512.93,664.33 507.96,664.20 505.43,658.98
             503.32,654.62 504.00,641.41 504.00,636.00
             504.00,636.00 504.00,586.00 504.00,586.00
             504.00,586.00 504.00,465.00 504.00,465.00
             503.99,461.16 504.55,456.76 500.77,454.45
             497.24,452.29 486.49,453.00 482.00,453.00
             482.00,453.00 439.00,453.00 439.00,453.00
             432.64,453.01 426.90,453.00 426.16,461.00
             426.00,462.09 426.05,463.91 426.16,465.00
             427.91,476.01 437.98,471.05 442.87,474.60
             446.98,477.58 446.98,482.45 447.00,487.00
             447.00,487.00 447.00,501.00 447.00,501.00
             447.00,501.00 448.00,516.00 448.00,516.00
             448.00,516.00 448.00,537.00 448.00,537.00
             441.58,531.26 436.35,529.11 428.00,527.40
             405.41,522.78 383.07,532.17 368.81,550.00
             364.76,555.06 361.59,559.65 360.00,566.00
             360.00,566.00 358.00,566.00 358.00,566.00
             355.55,558.30 349.18,551.05 342.96,546.01
             320.15,527.51 286.94,528.74 264.00,546.51
             244.40,561.70 233.04,586.27 233.00,611.00
             233.00,611.00 233.00,629.00 233.00,629.00
             233.00,629.00 204.00,580.00 204.00,580.00
             219.20,577.24 231.99,565.09 239.27,552.00
             244.19,543.15 246.88,534.18 247.00,524.00
             247.10,515.38 247.28,506.48 245.49,498.00
             242.64,484.51 232.99,469.78 222.00,461.61
             210.08,452.74 197.15,451.48 183.00,449.72
             183.00,449.72 169.00,448.04 169.00,448.04
             169.00,448.04 151.00,449.00 151.00,449.00
             151.00,449.00 72.00,449.00 72.00,449.00
             65.36,449.01 59.57,448.58 59.06,457.00
             58.93,459.11 59.13,461.96 60.01,463.89
             62.79,470.01 69.83,467.01 75.91,471.01
             82.12,475.08 81.99,487.12 82.00,494.00
             82.00,494.00 82.00,647.00 82.00,647.00
             81.99,653.98 82.06,665.04 75.96,669.44
             69.32,674.22 58.48,669.58 57.20,681.00
             55.70,694.38 71.40,691.00 80.00,691.00
             80.00,691.00 160.00,691.00 160.00,691.00
             165.86,690.99 169.99,691.17 170.80,684.00
             172.44,669.43 158.12,674.20 151.04,669.91
             145.32,666.45 145.03,659.98 145.00,654.00
             145.00,654.00 144.00,636.00 144.00,636.00
             144.00,636.00 144.00,592.00 144.00,592.00
             144.00,592.00 164.45,627.00 164.45,627.00
             164.45,627.00 186.69,665.00 186.69,665.00
             189.80,670.73 196.97,686.76 202.09,689.55
             205.12,691.20 208.67,690.99 212.00,691.00
             212.00,691.00 253.00,691.00 253.00,691.00
             253.00,691.00 266.42,689.43 266.42,689.43
             266.42,689.43 278.00,694.11 278.00,694.11
             287.21,697.00 295.38,698.11 305.00,698.00
             328.13,697.73 350.83,683.85 361.00,663.00
             371.96,681.17 387.83,694.74 410.00,695.00
             417.70,695.09 421.47,695.36 429.00,692.97
             438.09,690.08 440.62,687.42 448.00,682.00
             448.00,685.97 447.11,691.39 451.15,693.69
             455.59,696.22 467.00,693.00 472.00,691.88
             472.00,691.88 518.00,683.00 518.00,683.00
             518.09,685.01 518.14,687.04 518.72,688.98
             520.45,694.80 526.84,696.22 531.81,693.57
             537.01,690.81 538.98,679.13 549.00,681.79
             554.65,683.29 563.90,690.43 581.00,693.54
             604.79,697.86 629.06,692.41 647.04,675.82
             651.80,671.42 656.09,666.83 659.00,661.00
             664.01,669.19 662.64,674.33 673.01,683.83
             693.22,702.32 722.71,696.58 742.00,680.00
             742.01,683.65 741.47,687.57 745.15,689.69
             748.38,691.55 757.94,691.00 762.00,691.00
             762.00,691.00 801.00,691.00 801.00,691.00
             808.12,690.91 809.27,689.47 811.72,689.37
             814.73,689.23 814.52,690.96 823.00,691.00
             823.00,691.00 927.00,691.00 927.00,691.00
             945.49,690.97 965.33,680.62 974.09,664.00
             980.62,651.62 980.69,628.97 975.91,616.00
             971.63,604.41 958.81,592.38 949.00,585.15
             949.00,585.15 920.00,563.82 920.00,563.82
             917.43,561.54 912.10,556.81 912.82,553.00
             913.16,551.21 914.67,549.54 916.06,548.43
             922.10,543.61 929.77,548.03 935.00,551.92
             940.46,555.99 944.76,561.87 947.68,568.00
             949.49,571.80 952.37,579.95 955.27,582.57
             959.28,586.18 967.77,586.22 970.26,579.98
             971.30,577.38 971.01,570.11 971.00,567.00
             971.00,567.00 970.39,553.00 970.39,553.00
             970.76,545.99 972.72,533.42 970.39,527.02
             968.38,520.28 956.18,518.53 950.00,530.00
             945.01,527.79 940.31,524.92 935.00,523.49
             931.15,522.45 927.97,522.05 924.00,522.15
             924.00,522.15 908.00,522.15 908.00,522.15
             895.00,523.98 879.35,533.12 875.00,546.00
             869.11,539.82 865.97,535.13 858.00,530.98
             838.87,521.04 814.37,527.01 799.00,541.00
             798.78,536.68 798.54,532.78 793.95,530.89
             790.72,529.56 780.04,530.00 776.00,530.00
             776.00,530.00 739.00,530.00 739.00,530.00
             732.48,530.01 726.13,529.76 725.20,538.00
             723.58,552.42 737.87,545.82 739.97,556.02
             739.97,556.02 739.97,566.00 739.97,566.00
             740.92,573.01 741.98,571.07 742.00,581.00
             742.00,581.00 742.00,636.00 742.00,636.00
             741.98,645.49 738.34,650.59 731.00,656.67
             728.08,659.09 723.93,661.93 720.05,659.96
             714.25,657.02 714.01,646.66 714.00,641.00
             714.00,641.00 714.00,542.00 714.00,542.00
             713.99,537.62 714.43,533.71 709.94,531.31
             706.44,529.45 697.26,530.00 693.00,530.00
             693.00,530.00 654.00,530.00 654.00,530.00
             651.04,530.04 647.68,530.07 645.15,531.85
             641.08,534.72 640.83,543.17 644.31,546.57
             647.68,549.86 653.07,548.61 655.83,553.21
             657.72,556.37 658.00,566.13 658.00,570.00
             642.84,554.41 630.17,544.26 611.00,533.77
             597.18,526.21 570.15,511.67 564.28,497.00
             559.06,483.94 568.44,469.77 581.00,465.60
             587.95,463.29 594.27,464.18 601.00,466.75
             617.60,473.09 629.40,487.86 635.80,504.00
             642.62,521.23 638.33,530.04 652.00,528.94
             658.44,528.43 659.89,524.80 660.00,519.00
             660.00,519.00 660.00,501.00 660.00,501.00
             660.00,501.00 658.89,488.00 658.89,488.00
             658.89,488.00 658.89,452.00 658.89,452.00
             659.00,450.01 659.05,446.89 658.89,445.00
             656.91,436.61 646.37,436.77 642.72,441.28
             640.37,444.18 640.51,449.23 638.28,451.64
             636.65,453.40 635.11,453.28 633.00,452.59
             633.00,452.59 617.00,444.57 617.00,444.57
             608.43,440.90 596.32,438.34 587.00,438.34
             548.17,438.34 518.45,469.64 518.00,508.00
             517.89,517.80 518.73,527.60 521.75,537.00
             530.17,563.25 552.69,578.84 575.00,592.57
             592.66,603.44 623.57,616.25 625.80,640.00
             626.13,643.50 625.18,646.77 623.93,650.00
             619.23,662.16 607.19,670.50 594.00,669.79
             580.90,669.10 568.46,661.27 559.72,651.91
             550.44,641.97 543.88,630.00 539.88,617.00
             538.43,612.26 535.92,597.61 532.58,595.09
             530.90,593.81 528.09,593.14 526.00,593.30
             517.94,593.92 518.01,601.89 518.00,608.00
             518.00,608.00 518.00,665.00 518.00,665.00 Z
           M 144.00,562.00
           C 144.00,562.00 144.00,523.00 144.00,523.00
             144.00,523.00 144.00,487.00 144.00,487.00
             144.00,484.06 143.73,478.86 145.85,476.60
             147.58,474.76 150.68,475.02 153.00,475.00
             161.90,474.94 169.71,474.48 176.48,481.47
             182.67,487.84 183.85,494.64 185.00,503.00
             187.19,518.99 187.10,543.90 173.71,555.24
             165.30,562.36 154.30,562.00 144.00,562.00 Z
           M 317.00,593.00
           C 317.00,593.00 287.00,593.00 287.00,593.00
             287.09,583.60 289.14,571.18 293.88,563.00
             296.41,558.62 300.35,554.23 306.00,555.98
             310.50,557.38 312.83,561.88 314.30,566.00
             317.54,575.04 317.00,583.62 317.00,593.00 Z
           M 422.00,555.60
           C 433.17,553.25 444.60,562.44 447.83,573.00
             448.09,575.12 448.00,577.79 447.83,580.00
             447.83,580.00 447.83,638.00 447.83,638.00
             447.99,640.74 448.12,643.36 447.23,646.00
             444.92,652.90 434.09,664.96 426.00,663.57
             417.18,662.04 412.29,647.72 410.92,640.00
             409.76,633.44 409.01,629.76 409.00,623.00
             408.98,608.94 407.98,590.44 410.42,577.00
             411.89,568.94 414.31,559.73 422.00,555.60 Z
           M 816.00,560.49
           C 824.88,560.89 824.99,568.01 825.00,575.00
             825.00,575.00 826.00,597.00 826.00,597.00
             826.00,597.00 826.00,644.00 826.00,644.00
             826.00,644.00 824.11,666.96 824.11,666.96
             822.47,671.00 816.21,674.13 812.00,674.08
             810.12,674.05 807.78,673.04 806.02,672.37
             804.62,671.83 802.82,671.26 801.73,670.19
             799.35,667.84 799.04,661.23 799.00,658.00
             799.00,658.00 799.00,583.00 799.00,583.00
             799.00,580.49 798.89,577.43 799.65,575.04
             801.69,568.55 809.59,562.15 816.00,560.49 Z
           M 883.00,609.00
           C 883.00,609.00 898.00,621.53 898.00,621.53
             898.00,621.53 922.00,638.79 922.00,638.79
             927.53,643.09 934.27,647.23 934.77,655.00
             935.13,660.52 931.16,664.45 926.00,665.39
             921.84,666.54 918.75,665.18 915.00,665.39
             915.00,665.39 905.00,666.00 905.00,666.00
             905.00,666.00 891.00,666.00 891.00,666.00
             883.52,665.99 882.11,666.11 882.00,658.00
             882.00,658.00 882.00,626.00 882.00,626.00
             882.00,621.19 881.31,613.26 883.00,609.00 Z
           M 350.00,616.00
           C 350.00,616.00 351.83,636.00 351.83,636.00
             352.28,641.86 349.81,644.35 346.34,648.71
             338.03,659.16 327.36,665.04 314.00,660.05
             297.72,653.97 289.05,632.32 289.00,616.00
             289.00,616.00 350.00,616.00 350.00,616.00 Z" />
</svg>
